<svg width="133" height="133" viewBox="0 0 133 133" fill="none" xmlns="http://www.w3.org/2000/svg">
<path d="M124.258 50.4769C122.24 48.373 120.159 46.2003 119.476 44.555C118.869 43.0874 118.823 40.0662 118.783 37.4062C118.697 31.6735 118.588 24.5419 113.52 19.4799C108.452 14.4179 101.327 14.3204 95.5938 14.2172C92.9338 14.1771 89.9126 14.1313 88.445 13.5236C86.7997 12.8414 84.627 10.7604 82.5231 8.74246C78.4643 4.84991 73.408 0 66.5 0C59.592 0 54.5357 4.84991 50.4769 8.74246C48.373 10.7604 46.2003 12.8414 44.555 13.5236C43.0874 14.1313 40.0662 14.1771 37.4062 14.2172C31.6735 14.3319 24.5419 14.4122 19.4914 19.4914C14.4408 24.5706 14.3319 31.6735 14.2172 37.4062C14.1771 40.0662 14.1313 43.0874 13.5236 44.555C12.8414 46.2003 10.7604 48.373 8.74246 50.4769C4.84991 54.5357 0 59.6207 0 66.5C0 73.3793 4.84991 78.4643 8.74246 82.5517C10.7604 84.6556 12.8414 86.8284 13.5236 88.4737C14.1313 89.9413 14.1771 92.9624 14.2172 95.6224C14.3032 101.355 14.4122 108.487 19.4799 113.549C24.5477 118.611 31.6735 118.708 37.4062 118.811C40.0662 118.852 43.0874 118.897 44.555 119.505C46.2003 120.187 48.373 122.268 50.4769 124.286C54.5357 128.15 59.6207 133 66.5 133C73.3793 133 78.4643 128.15 82.5231 124.258C84.627 122.24 86.7997 120.159 88.445 119.476C89.9126 118.869 92.9338 118.823 95.5938 118.783C101.327 118.697 108.458 118.588 113.52 113.52C118.582 108.452 118.68 101.327 118.783 95.5938C118.823 92.9338 118.869 89.9126 119.476 88.445C120.159 86.7997 122.24 84.627 124.258 82.5231C128.15 78.4643 133 73.408 133 66.5C133 59.592 128.15 54.5357 124.258 50.4769ZM114.328 73.0009C111.565 75.8673 108.435 79.1465 106.767 83.1823C105.15 87.0806 105.087 91.2999 105.047 95.3874C105.001 98.4601 104.938 102.674 103.815 103.792C102.691 104.909 98.4831 104.978 95.4103 105.024C91.3228 105.087 87.1035 105.15 83.2053 106.744C79.1923 108.412 75.9075 111.542 73.0239 114.305C70.9601 116.283 67.8759 119.241 66.5 119.241C65.1241 119.241 62.0399 116.283 59.9991 114.328C57.1327 111.565 53.8535 108.435 49.8177 106.767C45.9194 105.15 41.7001 105.087 37.6126 105.047C34.5399 105.001 30.3263 104.938 29.2084 103.815C28.0905 102.691 28.0217 98.4831 27.9759 95.4103C27.9128 91.3228 27.8497 87.1035 26.256 83.2053C24.5878 79.1923 21.4577 75.9075 18.6945 73.0239C16.7167 70.9601 13.7586 67.8759 13.7586 66.5C13.7586 65.1241 16.7167 62.0399 18.6716 59.9991C21.4348 57.1327 24.5649 53.8535 26.2331 49.8177C27.8497 45.9194 27.9128 41.7001 27.9529 37.6126C28.0217 34.5399 28.0905 30.3263 29.2371 29.2371C30.3836 28.1478 34.5685 28.0504 37.6413 28.0045C41.7288 27.9415 45.9481 27.8784 49.8463 26.2847C53.8593 24.6165 57.1441 21.4864 60.0277 18.7232C62.0399 16.7167 65.1241 13.7586 66.5 13.7586C67.8759 13.7586 70.9601 16.7167 73.0009 18.6716C75.8673 21.4348 79.1465 24.5649 83.1823 26.2331C87.0806 27.8497 91.2999 27.9128 95.3874 27.9529C98.4601 27.9988 102.674 28.0619 103.792 29.1855C104.909 30.3091 104.978 34.5169 105.024 37.5897C105.087 41.6772 105.15 45.8965 106.744 49.7947C108.412 53.8077 111.542 57.0925 114.305 59.9761C116.26 62.017 119.218 65.1012 119.218 66.4771C119.218 67.8529 116.283 70.9601 114.328 73.0009ZM94.2981 47.8743C94.9395 48.5134 95.4483 49.2728 95.7956 50.109C96.1428 50.9452 96.3215 51.8417 96.3215 52.7471C96.3215 53.6525 96.1428 54.549 95.7956 55.3852C95.4483 56.2214 94.9395 56.9808 94.2981 57.62L62.1947 89.7234C61.5556 90.3647 60.7962 90.8736 59.96 91.2208C59.1238 91.568 58.2273 91.7468 57.3219 91.7468C56.4164 91.7468 55.5199 91.568 54.6837 91.2208C53.8475 90.8736 53.0881 90.3647 52.449 89.7234L38.6904 75.9648C38.0505 75.3249 37.5429 74.5652 37.1966 73.7291C36.8502 72.893 36.672 71.9969 36.672 71.0919C36.672 70.187 36.8502 69.2909 37.1966 68.4548C37.5429 67.6187 38.0505 66.859 38.6904 66.2191C39.3303 65.5792 40.09 65.0716 40.9261 64.7253C41.7621 64.3789 42.6583 64.2007 43.5632 64.2007C44.4682 64.2007 45.3643 64.3789 46.2004 64.7253C47.0365 65.0716 47.7962 65.5792 48.4361 66.2191L57.3276 75.0991L84.5639 47.8571C85.2039 47.2186 85.9636 46.7125 86.7993 46.3678C87.6351 46.0231 88.5306 45.8465 89.4346 45.8481C90.3387 45.8497 91.2335 46.0294 92.068 46.3771C92.9026 46.7248 93.6604 47.2335 94.2981 47.8743Z" fill="url(#paint0_linear_8920_212)"/>
<defs>
<linearGradient id="paint0_linear_8920_212" x1="66.5" y1="0" x2="66.5" y2="133" gradientUnits="userSpaceOnUse">
<stop stop-color="#674CEC"/>
<stop offset="1" stop-color="#437CF3"/>
</linearGradient>
</defs>
</svg>
