<svg width="1140" height="900" viewBox="0 0 1140 900" fill="none" xmlns="http://www.w3.org/2000/svg">
<g filter="url(#filter0_f_44_793)">
<circle cx="427.452" cy="545.106" r="226.613" fill="#C0F0FF"/>
<circle cx="492.686" cy="469.163" r="226.613" fill="#93AAFF"/>
<circle cx="577.392" cy="428.27" r="226.613" fill="#FEBDFF"/>
<path opacity="0.6" d="M391.428 425.593C398.243 363.767 425.262 347.459 502.422 352.57C509.481 356.221 522.333 369.901 517.27 395.41C510.941 427.297 446.438 392.733 446.438 407.824C446.438 422.915 461.286 465.268 446.438 501.779C431.59 538.291 431.103 600.603 414.552 651.475C398 702.348 371.468 705.512 349.805 712.084C332.475 717.342 311.428 714.275 303.071 712.084C350.535 690.421 337.391 683.362 363.193 663.889C388.994 644.417 384.613 487.418 391.428 425.593Z" fill="#FA00FF" fill-opacity="0.63"/>
<circle cx="713.213" cy="415.613" r="226.613" fill="#FEDEFF"/>
</g>
<defs>
<filter id="filter0_f_44_793" x="0.839355" y="-11" width="1138.99" height="982.719" filterUnits="userSpaceOnUse" color-interpolation-filters="sRGB">
<feFlood flood-opacity="0" result="BackgroundImageFix"/>
<feBlend mode="normal" in="SourceGraphic" in2="BackgroundImageFix" result="shape"/>
<feGaussianBlur stdDeviation="100" result="effect1_foregroundBlur_44_793"/>
</filter>
</defs>
</svg>
