<svg width="134" height="110" viewBox="0 0 134 110" fill="none" xmlns="http://www.w3.org/2000/svg">
<path d="M15.125 14.375V90.375H53.125C55.0147 90.375 56.8269 91.1257 58.1631 92.4619C59.4993 93.7981 60.25 95.6103 60.25 97.5C60.25 99.3897 59.4993 101.202 58.1631 102.538C56.8269 103.874 55.0147 104.625 53.125 104.625H12.75C9.60055 104.625 6.5801 103.374 4.35311 101.147C2.12611 98.9199 0.875 95.8994 0.875 92.75V12C0.875 8.85055 2.12611 5.8301 4.35311 3.60311C6.5801 1.37611 9.60055 0.125 12.75 0.125H44.4147C46.9833 0.130105 49.4818 0.962945 51.5397 2.5L67.375 14.375H117.25C120.399 14.375 123.42 15.6261 125.647 17.8531C127.874 20.0801 129.125 23.1006 129.125 26.25V38.125C129.125 40.0147 128.374 41.8269 127.038 43.1631C125.702 44.4993 123.89 45.25 122 45.25C120.11 45.25 118.298 44.4993 116.962 43.1631C115.626 41.8269 114.875 40.0147 114.875 38.125V28.625H65C63.4584 28.625 61.9583 28.125 60.725 27.2L43.625 14.375H15.125ZM131.286 75.4541L119.067 85.5478L122.778 100.546C123.114 101.907 123.04 103.337 122.567 104.656C122.094 105.976 121.243 107.126 120.119 107.964C118.995 108.802 117.65 109.29 116.25 109.367C114.85 109.443 113.459 109.105 112.251 108.395L98.25 100.148L84.2494 108.389C83.0408 109.099 81.6497 109.437 80.2501 109.361C78.8505 109.284 77.5046 108.796 76.3808 107.958C75.2571 107.12 74.4055 105.97 73.9326 104.65C73.4597 103.331 73.3865 101.901 73.7222 100.54L77.4331 85.5419L65.2138 75.4481C64.1181 74.5439 63.3177 73.3327 62.9155 71.9702C62.5132 70.6078 62.5275 69.1561 62.9564 67.8018C63.3853 66.4475 64.2092 65.2523 65.3224 64.3697C66.4357 63.4871 67.7873 62.9574 69.2038 62.8488L85.4844 61.59L91.7188 47.1737C92.273 45.9025 93.1862 44.8206 94.3464 44.0608C95.5065 43.301 96.8632 42.8963 98.25 42.8963C99.6368 42.8963 100.993 43.301 102.154 44.0608C103.314 44.8206 104.227 45.9025 104.781 47.1737L111.004 61.5959L127.284 62.8547C128.701 62.9634 130.052 63.493 131.166 64.3756C132.279 65.2582 133.103 66.4534 133.532 67.8077C133.961 69.1621 133.975 70.6137 133.573 71.9762C133.17 73.3387 132.37 74.5498 131.274 75.4541H131.286ZM108.605 75.7034L105.636 75.4719C104.342 75.3715 103.101 74.9197 102.045 74.1653C100.989 73.4109 100.159 72.3824 99.6453 71.1909L98.2619 67.9847L96.8784 71.1909C96.3639 72.3832 95.5332 73.4123 94.4763 74.1668C93.4194 74.9213 92.1764 75.3726 90.8816 75.4719L87.9128 75.7034L89.9791 77.4075C91.0129 78.2626 91.7842 79.3922 92.2044 80.6664C92.6245 81.9405 92.6764 83.3074 92.3541 84.6097L91.6356 87.5131L94.6459 85.7319C95.7417 85.0865 96.9902 84.7461 98.2619 84.7461C99.5336 84.7461 100.782 85.0865 101.878 85.7319L104.888 87.5131L104.188 84.6097C103.865 83.3074 103.917 81.9405 104.337 80.6664C104.757 79.3922 105.529 78.2626 106.562 77.4075L108.605 75.7034Z" fill="url(#paint0_linear_8945_1468)"/>
<defs>
<linearGradient id="paint0_linear_8945_1468" x1="0.875" y1="54.7511" x2="157.172" y2="54.7108" gradientUnits="userSpaceOnUse">
<stop stop-color="#131313"/>
<stop offset="1" stop-color="#FFACE3"/>
</linearGradient>
</defs>
</svg>
