<svg width="44" height="44" viewBox="0 0 44 44" fill="none" xmlns="http://www.w3.org/2000/svg">
<path d="M14.1458 23.8729L14.0008 24.1629C13.3966 25.335 12.442 26.2896 11.27 26.8938L10.98 27.0388C9.83205 27.6188 9.83205 29.2621 10.98 29.8542L11.27 29.9992C12.442 30.6033 13.3966 31.5579 14.0008 32.73L14.1458 33.02C14.7258 34.1679 16.3691 34.1679 16.9612 33.02L17.1062 32.73C17.7104 31.5579 18.665 30.6033 19.837 29.9992L20.1271 29.8542C21.275 29.2742 21.275 27.6308 20.1271 27.0388L19.837 26.8938C18.665 26.2896 17.7104 25.335 17.1062 24.1629L16.9612 23.8729C16.3812 22.725 14.7379 22.725 14.1458 23.8729Z" fill="#F4F9FC"/>
<path d="M18.8825 21.7342L19.2691 21.9275C20.4775 22.5438 21.4441 23.5104 22.0604 24.7188L22.2537 25.1054C22.9183 26.4104 24.2475 27.22 25.7095 27.22C27.1716 27.22 28.5008 26.4104 29.1775 25.1054L29.3708 24.7188C29.987 23.5104 30.9537 22.5438 32.1621 21.9275L32.5487 21.7342C33.8537 21.0696 34.6633 19.7404 34.6633 18.2783C34.6633 16.8163 33.8537 15.4871 32.5487 14.8104L32.1621 14.6171C30.9537 14.0008 29.987 13.0342 29.3708 11.8258L29.1775 11.4392C28.5129 10.1342 27.1837 9.3246 25.7095 9.3246C24.2354 9.3246 22.9183 10.1342 22.2416 11.4392L22.0483 11.8258C21.4321 13.0342 20.4654 14.0008 19.257 14.6171L18.8704 14.8104C17.5654 15.475 16.7558 16.8042 16.7558 18.2783C16.7558 19.7525 17.5654 21.0696 18.8704 21.7463L18.8825 21.7342ZM20.5258 18.0367L20.9125 17.8433C22.8095 16.8767 24.32 15.3663 25.2866 13.4692L25.48 13.0825C25.48 13.0825 25.5525 12.9375 25.7095 12.9375C25.8666 12.9375 25.927 13.0342 25.9391 13.0825L26.1325 13.4692C27.0991 15.3663 28.6096 16.8767 30.5066 17.8433L30.8933 18.0367C30.8933 18.0367 31.0383 18.1092 31.0383 18.2663C31.0383 18.4233 30.9296 18.4838 30.8933 18.4958L30.5066 18.6892C28.6096 19.6558 27.0991 21.1663 26.1325 23.0633L25.9391 23.45C25.9391 23.45 25.8666 23.595 25.7095 23.595C25.5525 23.595 25.492 23.4863 25.48 23.45L25.2866 23.0633C24.32 21.1663 22.8095 19.6558 20.9125 18.6892L20.5258 18.4958C20.5258 18.4958 20.3808 18.4233 20.3808 18.2663C20.3808 18.1092 20.4895 18.0488 20.5258 18.0367Z" fill="#F4F9FC"/>
<path d="M35.4729 34.0229L28.7908 34.76C27.4254 34.905 26.7366 36.4759 27.5462 37.5875L28.1383 38.385C26.1808 39.1221 24.0904 39.5209 22 39.5209C20.2479 39.5209 18.5441 39.255 16.9491 38.7717C16.647 38.6871 16.357 38.5663 16.067 38.4696C15.8012 38.3729 15.5354 38.2883 15.2816 38.1796C15.1004 38.1071 14.9312 38.0225 14.7621 37.9379C14.3996 37.7688 14.025 37.5996 13.6746 37.4063C13.6504 37.3942 13.6262 37.3821 13.6141 37.37C8.18872 34.3854 4.49122 28.6217 4.49122 22C4.49122 21.9758 4.49122 21.9517 4.49122 21.9154C4.49122 21.5046 4.51538 21.1059 4.53955 20.695C4.55163 20.4775 4.5758 20.2721 4.59997 20.0546C4.63622 19.7525 4.67247 19.4504 4.7208 19.1483C4.75705 18.955 4.78122 18.7617 4.81747 18.5563C4.90205 18.1333 5.0108 17.7104 5.11955 17.2875C5.53038 15.8254 6.12247 14.4117 6.90788 13.0825C7.41538 12.2246 7.12538 11.1129 6.26747 10.6054C5.40955 10.0979 4.29788 10.3879 3.79038 11.2458C2.94455 12.6838 2.27997 14.2184 1.78455 15.8013C1.76038 15.8738 1.72413 15.9342 1.69997 16.0067C1.6758 16.1034 1.65163 16.2 1.62747 16.2967C1.48247 16.8163 1.34955 17.3358 1.25288 17.8554C1.20455 18.085 1.18038 18.3146 1.13205 18.5442C1.07163 18.9067 1.0233 19.2813 0.974966 19.6558C0.950799 19.9096 0.91455 20.1633 0.902466 20.4171C0.866216 20.9004 0.842049 21.3717 0.842049 21.855C0.817883 25.3954 1.6758 28.9117 3.4158 32.1138C5.38538 35.7267 8.30955 38.6146 11.8379 40.5359C11.8621 40.5479 11.8983 40.5721 11.9225 40.5842C12.3454 40.8138 12.7925 41.0192 13.2395 41.2125C13.4571 41.3092 13.6625 41.4179 13.88 41.5025C14.1941 41.6354 14.5083 41.7321 14.8225 41.8529C15.1729 41.9859 15.5233 42.1188 15.8858 42.2275C15.9341 42.2396 15.9704 42.2638 16.0187 42.2758C16.055 42.2758 16.0912 42.2759 16.1275 42.2879C17.9883 42.8317 19.9579 43.1338 21.9879 43.1338C24.8637 43.1338 27.7033 42.5296 30.3496 41.3938L31.5216 43.0009C32.3312 44.1004 34.035 43.9192 34.5908 42.6625L37.2975 36.5121C37.8533 35.2554 36.8383 33.8779 35.4729 34.0229Z" fill="#F4F9FC"/>
<path d="M22 0.854181C19.1241 0.854181 16.2845 1.45835 13.6383 2.59418L12.4662 0.987097C11.6566 -0.112486 9.95288 0.0687637 9.39705 1.32543L6.69038 7.47585C6.13455 8.73251 7.14955 10.11 8.51497 9.96501L15.1971 9.22793C16.5625 9.08293 17.2512 7.5121 16.4416 6.40043L15.8496 5.60293C17.8071 4.86585 19.8975 4.4671 21.9879 4.4671C31.6545 4.4671 39.5087 12.3213 39.5087 21.9879C39.5087 25.0933 38.6629 28.1746 37.0679 30.8692C36.5604 31.7271 36.8504 32.8388 37.7083 33.3463C37.9983 33.5154 38.3125 33.6 38.6266 33.6C39.2429 33.6 39.847 33.2858 40.1854 32.7058C42.1066 29.4433 43.1337 25.7338 43.1337 21.9758C43.1337 10.3154 33.6483 0.830014 21.9879 0.830014L22 0.854181Z" fill="#F4F9FC"/>
</svg>
