<svg width="63" height="66" viewBox="0 0 63 66" fill="none" xmlns="http://www.w3.org/2000/svg">
<path fill-rule="evenodd" clip-rule="evenodd" d="M32.7908 7.02651C31.9377 6.86856 31.0623 6.86856 30.2092 7.02651C29.3592 7.18388 28.4884 7.57871 25.5521 9.02756L14.3523 14.554C10.7543 16.3294 9.72239 16.889 8.99941 17.6175C8.2734 18.349 7.72126 19.2306 7.38294 20.1986C7.04603 21.1626 7.00036 22.3237 7.00036 26.2936V37.9442C7.00036 41.5216 7.03826 42.5664 7.32062 43.4557C7.60407 44.3484 8.06829 45.175 8.68514 45.8853C9.29961 46.5929 10.1773 47.1784 13.2513 49.0744L24.4511 55.9825C27.899 58.1091 28.9322 58.6922 29.9489 58.9202C30.97 59.1492 32.03 59.1492 33.0511 58.9202C34.0678 58.6922 35.101 58.1091 38.5489 55.9825L49.7487 49.0744C52.8227 47.1784 53.7004 46.5929 54.3149 45.8853C54.9317 45.175 55.3959 44.3484 55.6794 43.4557C55.9617 42.5664 55.9996 41.5216 55.9996 37.9442V26.2936C55.9996 22.3237 55.954 21.1626 55.6171 20.1986C55.2787 19.2306 54.7266 18.349 54.0006 17.6175C53.2776 16.889 52.2457 16.3294 48.6477 14.554L37.4478 9.02756C34.5116 7.57871 33.6408 7.18388 32.7908 7.02651ZM28.9185 0.236922C30.6246 -0.0789741 32.3754 -0.0789741 34.0815 0.236922C36.0179 0.59544 37.8139 1.48295 40.1929 2.65848C40.3197 2.72112 40.4481 2.78458 40.5783 2.84882L51.7781 8.37526C51.9394 8.45482 52.0985 8.53321 52.2555 8.61056C55.1606 10.0416 57.3507 11.1205 59.0014 12.7838C60.4535 14.2468 61.5577 16.0101 62.2344 17.9461C63.0036 20.147 63.002 22.5627 62.9998 25.767C62.9997 25.9402 62.9995 26.1157 62.9995 26.2936V37.9442C62.9995 38.1036 62.9996 38.2608 62.9997 38.416C63.0015 41.3099 63.0029 43.4934 62.359 45.5213C61.7921 47.3067 60.8637 48.9599 59.63 50.3806C58.2288 51.9941 56.3518 53.1503 53.8642 54.6825C53.7308 54.7647 53.5956 54.848 53.4587 54.9324L42.2588 61.8405C42.1042 61.9358 41.9517 62.03 41.8013 62.123C39.0203 63.8409 36.9239 65.1359 34.6021 65.6565C32.5601 66.1145 30.4399 66.1145 28.3979 65.6565C26.0761 65.1359 23.9798 63.8409 21.1987 62.123C21.0483 62.03 20.8958 61.9358 20.7412 61.8405L9.54135 54.9324C9.4044 54.848 9.26923 54.7647 9.13582 54.6825C6.6482 53.1503 4.77124 51.9941 3.37002 50.3806C2.13632 48.9599 1.20787 47.3067 0.640976 45.5213C-0.00289774 43.4934 -0.00153381 41.3099 0.000273201 38.416C0.000369998 38.2608 0.000468046 38.1036 0.000468046 37.9442V26.2936C0.000468046 26.1157 0.000347885 25.9402 0.000229392 25.767C-0.00196313 22.5627 -0.0036162 20.147 0.765624 17.9461C1.44226 16.0101 2.54654 14.2468 3.99855 12.7838C5.64927 11.1205 7.83936 10.0416 10.7445 8.61057C10.9015 8.53321 11.0606 8.45482 11.2219 8.37526L22.4217 2.84882C22.5519 2.78458 22.6803 2.72111 22.8071 2.65847C25.1861 1.48295 26.9821 0.59544 28.9185 0.236922Z" fill="#F4F9FC"/>
<path fill-rule="evenodd" clip-rule="evenodd" d="M3.86992 16.2294C4.73436 14.5231 6.83669 13.8316 8.56559 14.6847L19.0654 19.8657C20.7943 20.7188 21.4951 22.7936 20.6307 24.4998C19.7662 26.206 17.6639 26.8976 15.935 26.0445L5.43514 20.8634C3.70624 20.0103 3.00547 17.9356 3.86992 16.2294ZM59.1301 16.2294C59.9945 17.9356 59.2938 20.0103 57.5649 20.8634L47.065 26.0445C45.3361 26.8976 43.2338 26.206 42.3693 24.4998C41.5049 22.7936 42.2057 20.7188 43.9346 19.8657L54.4344 14.6847C56.1633 13.8316 58.2656 14.5231 59.1301 16.2294ZM31.5 50.5873C33.433 50.5873 35 52.1337 35 54.0413V60.9493C35 62.8569 33.433 64.4034 31.5 64.4034C29.567 64.4034 28.0001 62.8569 28.0001 60.9493V54.0413C28.0001 52.1337 29.567 50.5873 31.5 50.5873Z" fill="#F4F9FC"/>
<path fill-rule="evenodd" clip-rule="evenodd" d="M31.5 20.8827C32.4039 20.8827 33.2064 21.4535 33.4922 22.2997L35.7851 29.0882L42.6639 31.3511C43.5214 31.6332 44.0998 32.4251 44.0998 33.3171C44.0998 34.2092 43.5214 35.0011 42.6639 35.2832L35.7851 37.5461L33.4922 44.3346C33.2064 45.1808 32.4039 45.7516 31.5 45.7516C30.5961 45.7516 29.7936 45.1808 29.5078 44.3346L27.2149 37.5461L20.3361 35.2832C19.4786 35.0011 18.9002 34.2092 18.9002 33.3171C18.9002 32.4251 19.4786 31.6332 20.3361 31.3511L27.2149 29.0882L29.5078 22.2997C29.7936 21.4535 30.5961 20.8827 31.5 20.8827Z" fill="#F4F9FC"/>
</svg>
