<svg width="50" height="50" viewBox="0 0 50 50" fill="none" xmlns="http://www.w3.org/2000/svg">
<path d="M46.7134 18.9763C45.9547 18.1853 45.1724 17.3685 44.9159 16.75C44.6875 16.1983 44.6703 15.0625 44.6552 14.0625C44.6228 11.9073 44.5819 9.22629 42.6767 7.32328C40.7716 5.42026 38.0927 5.38362 35.9375 5.34483C34.9375 5.32974 33.8017 5.3125 33.25 5.08405C32.6315 4.82759 31.8147 4.04526 31.0237 3.28664C29.4978 1.82328 27.597 0 25 0C22.403 0 20.5022 1.82328 18.9763 3.28664C18.1853 4.04526 17.3685 4.82759 16.75 5.08405C16.1983 5.3125 15.0625 5.32974 14.0625 5.34483C11.9073 5.38793 9.22629 5.4181 7.32759 7.32759C5.42888 9.23707 5.38793 11.9073 5.34483 14.0625C5.32974 15.0625 5.3125 16.1983 5.08405 16.75C4.82759 17.3685 4.04526 18.1853 3.28664 18.9763C1.82328 20.5022 0 22.4138 0 25C0 27.5862 1.82328 29.4978 3.28664 31.0345C4.04526 31.8254 4.82759 32.6422 5.08405 33.2608C5.3125 33.8125 5.32974 34.9483 5.34483 35.9483C5.37715 38.1034 5.4181 40.7845 7.32328 42.6875C9.22845 44.5905 11.9073 44.6272 14.0625 44.6659C15.0625 44.681 16.1983 44.6983 16.75 44.9267C17.3685 45.1832 18.1853 45.9655 18.9763 46.7241C20.5022 48.1767 22.4138 50 25 50C27.5862 50 29.4978 48.1767 31.0237 46.7134C31.8147 45.9547 32.6315 45.1724 33.25 44.9159C33.8017 44.6875 34.9375 44.6703 35.9375 44.6552C38.0927 44.6228 40.7737 44.5819 42.6767 42.6767C44.5797 40.7716 44.6164 38.0927 44.6552 35.9375C44.6703 34.9375 44.6875 33.8017 44.9159 33.25C45.1724 32.6315 45.9547 31.8147 46.7134 31.0237C48.1767 29.4978 50 27.597 50 25C50 22.403 48.1767 20.5022 46.7134 18.9763ZM42.9806 27.444C41.9418 28.5216 40.7651 29.7543 40.1379 31.2716C39.5302 32.7371 39.5065 34.3233 39.4914 35.8599C39.4741 37.0151 39.4504 38.5991 39.028 39.0194C38.6056 39.4397 37.0237 39.4655 35.8685 39.4828C34.3319 39.5065 32.7457 39.5302 31.2802 40.1293C29.7716 40.7565 28.5366 41.9332 27.4526 42.972C26.6767 43.7155 25.5172 44.8276 25 44.8276C24.4828 44.8276 23.3233 43.7155 22.556 42.9806C21.4784 41.9418 20.2457 40.7651 18.7284 40.1379C17.2629 39.5302 15.6767 39.5065 14.1401 39.4914C12.9849 39.4741 11.4009 39.4504 10.9806 39.028C10.5603 38.6056 10.5345 37.0237 10.5172 35.8685C10.4935 34.3319 10.4698 32.7457 9.87069 31.2802C9.24353 29.7716 8.06681 28.5366 7.02802 27.4526C6.28448 26.6767 5.17241 25.5172 5.17241 25C5.17241 24.4828 6.28448 23.3233 7.0194 22.556C8.05819 21.4784 9.23491 20.2457 9.86207 18.7284C10.4698 17.2629 10.4935 15.6767 10.5086 14.1401C10.5345 12.9849 10.5603 11.4009 10.9914 10.9914C11.4224 10.5819 12.9957 10.5453 14.1509 10.528C15.6875 10.5043 17.2737 10.4806 18.7392 9.88146C20.2478 9.25431 21.4828 8.07759 22.5668 7.03879C23.3233 6.28448 24.4828 5.17241 25 5.17241C25.5172 5.17241 26.6767 6.28448 27.444 7.0194C28.5216 8.05819 29.7543 9.23491 31.2716 9.86207C32.7371 10.4698 34.3233 10.4935 35.8599 10.5086C37.0151 10.5259 38.5991 10.5496 39.0194 10.972C39.4397 11.3944 39.4655 12.9763 39.4828 14.1315C39.5065 15.6681 39.5302 17.2543 40.1293 18.7198C40.7565 20.2284 41.9332 21.4634 42.972 22.5474C43.7069 23.3147 44.819 24.4741 44.819 24.9914C44.819 25.5086 43.7155 26.6767 42.9806 27.444ZM35.4504 17.9978C35.6915 18.2381 35.8828 18.5236 36.0134 18.838C36.1439 19.1523 36.2111 19.4894 36.2111 19.8297C36.2111 20.1701 36.1439 20.5072 36.0134 20.8215C35.8828 21.1359 35.6915 21.4214 35.4504 21.6616L23.3815 33.7306C23.1412 33.9717 22.8557 34.163 22.5413 34.2935C22.227 34.4241 21.8899 34.4913 21.5496 34.4913C21.2092 34.4913 20.8722 34.4241 20.5578 34.2935C20.2434 34.163 19.9579 33.9717 19.7177 33.7306L14.5453 28.5582C14.3047 28.3176 14.1139 28.032 13.9837 27.7177C13.8535 27.4034 13.7865 27.0665 13.7865 26.7263C13.7865 26.3861 13.8535 26.0492 13.9837 25.7349C14.1139 25.4206 14.3047 25.135 14.5453 24.8944C14.7858 24.6538 15.0714 24.463 15.3857 24.3328C15.7001 24.2026 16.0369 24.1356 16.3772 24.1356C16.7174 24.1356 17.0543 24.2026 17.3686 24.3328C17.6829 24.463 17.9685 24.6538 18.2091 24.8944L21.5517 28.2328L31.7909 17.9914C32.0316 17.7513 32.3171 17.5611 32.6313 17.4315C32.9455 17.3019 33.2822 17.2355 33.622 17.2361C33.9619 17.2367 34.2983 17.3043 34.612 17.435C34.9258 17.5657 35.2107 17.757 35.4504 17.9978Z" fill="#F4F9FC"/>
</svg>
