<svg width="46" height="31" viewBox="0 0 46 31" fill="none" xmlns="http://www.w3.org/2000/svg">
<path d="M45.6564 2.9375V15.4375C45.6564 16.0591 45.4095 16.6552 44.9699 17.0948C44.5304 17.5343 43.9343 17.7812 43.3127 17.7812C42.6911 17.7812 42.0949 17.5343 41.6554 17.0948C41.2158 16.6552 40.9689 16.0591 40.9689 15.4375V8.60156L26.2209 23.3516C26.0031 23.5701 25.7444 23.7434 25.4595 23.8617C25.1746 23.98 24.8692 24.0409 24.5607 24.0409C24.2522 24.0409 23.9468 23.98 23.6619 23.8617C23.377 23.7434 23.1183 23.5701 22.9005 23.3516L16.7502 17.1953L4.34586 29.5957C3.90556 30.036 3.30839 30.2834 2.68571 30.2834C2.06303 30.2834 1.46585 30.036 1.02555 29.5957C0.585249 29.1554 0.337891 28.5582 0.337891 27.9355C0.337891 27.3129 0.585249 26.7157 1.02555 26.2754L15.088 12.2129C15.3058 11.9944 15.5645 11.821 15.8494 11.7027C16.1343 11.5844 16.4397 11.5235 16.7482 11.5235C17.0567 11.5235 17.3621 11.5844 17.647 11.7027C17.9319 11.821 18.1906 11.9944 18.4084 12.2129L24.5627 18.3672L37.6486 5.28125H30.8127C30.1911 5.28125 29.5949 5.03432 29.1554 4.59478C28.7158 4.15524 28.4689 3.5591 28.4689 2.9375C28.4689 2.3159 28.7158 1.71976 29.1554 1.28022C29.5949 0.84068 30.1911 0.59375 30.8127 0.59375H43.3127C43.9343 0.59375 44.5304 0.84068 44.9699 1.28022C45.4095 1.71976 45.6564 2.3159 45.6564 2.9375Z" fill="#F4F9FC"/>
</svg>
