<svg width="61" height="57" viewBox="0 0 61 57" fill="none" xmlns="http://www.w3.org/2000/svg">
<path d="M60.922 27.3437C60.9177 23.6279 59.4397 20.0654 56.8122 17.4379C54.1847 14.8104 50.6222 13.3324 46.9064 13.3281H36.2114C35.2842 13.2715 22.034 12.25 9.40378 1.6574C8.61811 0.997766 7.66052 0.576018 6.64349 0.441684C5.62646 0.30735 4.59222 0.466008 3.66222 0.899024C2.73223 1.33204 1.9451 2.02144 1.39328 2.88624C0.841463 3.75105 0.54787 4.75536 0.546981 5.78122V48.9062C0.540496 49.9333 0.830514 50.9404 1.38223 51.8067C1.93395 52.673 2.72393 53.3617 3.65737 53.7901C4.58683 54.2289 5.62295 54.3908 6.64195 54.2565C7.66096 54.1222 8.61975 53.6974 9.40378 53.0327C15.8686 47.5981 23.5599 43.82 31.8126 42.0251V49.0868C31.8125 49.9741 32.0313 50.8476 32.4498 51.63C32.8683 52.4124 33.4734 53.0794 34.2114 53.5718C34.3311 53.6524 34.4563 53.7245 34.5861 53.7874L38.4781 55.6903C39.1975 56.121 40.0074 56.3779 40.8435 56.4406C41.6796 56.5034 42.5188 56.3702 43.2944 56.0517C44.07 55.7333 44.7606 55.2383 45.3114 54.6061C45.8621 53.974 46.2578 53.222 46.467 52.4101L49.4561 41.1383C52.6769 40.5387 55.5864 38.8313 57.6805 36.3119C59.7746 33.7924 60.9213 30.6198 60.922 27.3437ZM7.01573 46.6502V8.04529C16.7647 15.611 26.4678 18.3144 31.8126 19.274V35.4297C26.4678 36.3784 16.7647 39.0818 7.01573 46.6502ZM40.5427 49.4992L38.2814 48.3941V41.3593H42.7017L40.5427 49.4992ZM46.9064 34.8906H38.2814V19.7969H46.9064C48.9079 19.7969 50.8275 20.592 52.2428 22.0073C53.6581 23.4226 54.4532 25.3422 54.4532 27.3437C54.4532 29.3453 53.6581 31.2649 52.2428 32.6802C50.8275 34.0955 48.9079 34.8906 46.9064 34.8906Z" fill="#F4F9FC"/>
</svg>
